<?xml version="1.0" encoding="utf-8"?>
<!-- Generator: Adobe Illustrator 24.1.0, SVG Export Plug-In . SVG Version: 6.00 Build 0)  -->
<svg version="1.1" id="Layer_1" xmlns="http://www.w3.org/2000/svg" xmlns:xlink="http://www.w3.org/1999/xlink" x="0px" y="0px"
	 viewBox="0 0 74.9999695 60" enable-background="new 0 0 74.9999695 60" xml:space="preserve">
<g>
	<polygon points="0.9404602,48.3690491 0.9404602,53.5357056 1.3214111,53.5357056 3.5714111,51.0476074 4.7261658,51.0476074 
		2.0476074,53.9166565 5.2142639,57.2976074 3.9761658,57.2976074 1.3214111,54.2976074 0.9404602,54.2976074 0.9404602,57.2976074 
		0,57.2976074 0,48.3690491 0.9404602,48.3690491 	"/>
	<path d="M8.5952148,56.6071472c0.9404602,0,1.8928528-0.0238342,1.8928528-1.1666565
		c0-1.1785889-0.7023621-1.166687-1.8928528-1.166687c-1.1190491,0-1.5714111,0.0714111-1.5714111,1.0833435
		C7.0238037,56.5476074,7.5118713,56.6071472,8.5952148,56.6071472L8.5952148,56.6071472z M11.4523621,57.2976074h-0.9404907
		v-0.6428528l-0.0238037-0.0238342c-0.3571167,0.7142944-1.2738037,0.7381287-2.0595093,0.7381287
		c-1.4047546,0-2.3809509-0.2619324-2.3809509-1.8928528c0-1.7261963,0.8928528-1.9642944,2.4404907-1.9642944
		c0.6190186,0,1.8332825,0.0595398,1.9642639,0.6309204h0.0595093v-1.1547241c0-1.1428833-0.6071472-1.25-1.6666565-1.25
		c-0.7380676,0-1.6428528,0-1.6309509,0.8571167v0.2142944H6.2380981v-0.1309204
		c0-1.6071777,1.1071167-1.714325,2.4999695-1.7023926c1.5714417-0.0119324,2.7261963,0.1547546,2.7142944,2.0595093V57.2976074
		L11.4523621,57.2976074z"/>
	<polygon points="14.4761658,48.3690491 14.4761658,57.2976074 13.5357056,57.2976074 13.5357056,48.3690491 14.4761658,48.3690491 
			"/>
	<path d="M20.8809509,55.4047546h0.9642944v0.2261963c0,1.6547546-1.2738342,1.7380981-2.666687,1.7380981
		c-2.4404602,0-2.8095398-0.8095398-2.8095398-3.1904602c0-2.5952759,0.5714417-3.2023926,2.8095398-3.2023926
		c2.0238037,0,2.666687,0.4642639,2.666687,2.7738037v0.6309204h-4.5c0,1.9761963,0.1428528,2.2262268,1.833313,2.2262268
		c1.2857056,0,1.7023926-0.0833435,1.7023926-0.964325V55.4047546L20.8809509,55.4047546z M17.3452454,53.6190491h3.5237732
		c-0.0476074-1.7738342-0.2619019-1.8809509-1.6904602-1.8809509
		C17.4761963,51.7380981,17.4166565,52.1785583,17.3452454,53.6190491L17.3452454,53.6190491z"/>
	<path d="M24.7023621,51.0476074v6.25h-0.9404602v-6.25H24.7023621L24.7023621,51.0476074z M24.7023621,48.3690491v1.0357056
		h-0.9404602v-1.0357056H24.7023621L24.7023621,48.3690491z"/>
	<path d="M29.3214111,56.6071472c1.4642944,0,1.7380981-0.5,1.7380981-2.4285583
		c0-1.714325-0.2023926-2.4404907-1.7380981-2.4404907c-1.4404602,0-1.7738037,0.2499695-1.7738037,2.4404907
		C27.5476074,56.3452148,27.9761658,56.6071472,29.3214111,56.6071472L29.3214111,56.6071472z M31.0595093,57.2976074v-0.7857056
		l-0.0238037-0.0238342c-0.3690796,0.75-1.166687,0.8809814-2.0119324,0.8809814
		c-2.2261658,0-2.4523621-1.2857361-2.4523621-3.1904602c0-1.8809814,0.2142639-3.2023926,2.4523621-3.2023926
		c0.6904907,0,1.7380981,0.083313,2.0119324,0.8452148h0.0238037v-3.4523621h0.9404602v8.9285583H31.0595093L31.0595093,57.2976074z
		"/>
	<path d="M38.4285583,55.4047546h0.9642639v0.2261963c0,1.6547546-1.2738037,1.7380981-2.6666565,1.7380981
		c-2.4404907,0-2.8095398-0.8095398-2.8095398-3.1904602c0-2.5952759,0.5714417-3.2023926,2.8095398-3.2023926
		c2.0238037,0,2.6666565,0.4642639,2.6666565,2.7738037v0.6309204h-4.5c0,1.9761963,0.1428528,2.2262268,1.8333435,2.2262268
		c1.2857056,0,1.7023926-0.0833435,1.7023926-0.964325V55.4047546L38.4285583,55.4047546z M34.8928223,53.6190491h3.5238037
		c-0.0476074-1.7738342-0.2619019-1.8809509-1.6904602-1.8809509
		C35.0237732,51.7380981,34.9642639,52.1785583,34.8928223,53.6190491L34.8928223,53.6190491z"/>
	<path d="M46.2618713,52.4404907v0.2380981h-0.9762115v-0.2380981c0-0.6309814-0.476181-0.6309814-1.4642792-0.6309814
		c-1.1785583,0-1.75-0.0119019-1.75,0.7619019c0,1.1190491,0.3095398,1.0357361,1.2857208,1.0833435
		C44.9642487,53.75,46.4285278,53.5,46.4285278,55.5357056c0,1.7619019-1.2142944,1.8333435-2.6071472,1.8333435
		c-1.3571167,0-2.7738037-0.0714417-2.7738037-1.4642944v-0.5833435h0.9761963v0.4880981
		c0,0.5952454,0.3690491,0.7261963,1.7976074,0.7261963c0.6428528,0,1.6309509,0.1428528,1.6309509-0.9642944
		c0-1.1666565-0.4880829-0.9523926-1.6309509-1.0238037c-1.3571167-0.0952148-2.7261963,0.0476379-2.7261963-1.7261658
		c0-1.8095398,1.0357361-1.8452454,2.7261963-1.8452454C44.9166412,50.9761963,46.2618713,51.0238037,46.2618713,52.4404907
		L46.2618713,52.4404907z"/>
	<path d="M52.4404602,55.0357056h0.9404755v0.3452454c0,1.7618713-1.1666718,1.9880981-2.6547852,1.9880981
		c-2.5952301,0-2.7738037-1-2.7738037-3.3214417c0-2.0357056,0.3571625-3.0714111,2.6190643-3.0714111
		c1.5118866,0,2.7023621,0.166626,2.7023621,1.9404602v0.1666565H52.333313v-0.1904602
		c0-1.1309509-0.6190643-1.1547546-1.7023773-1.1547546c-1.6666718,0-1.7023773,0.5714417-1.7023773,2.5714111
		c0,1.7619019,0.0714264,2.2976379,1.9047546,2.2976379c1.1785583,0,1.6071472-0.1309509,1.6071472-1.2619019V55.0357056
		L52.4404602,55.0357056z"/>
	<path d="M57.4761658,56.6071472c0.9404755,0,1.8928528-0.0238342,1.8928528-1.1666565
		c0-1.1785889-0.7023773-1.166687-1.8928528-1.166687c-1.1190491,0-1.5714417,0.0714111-1.5714417,1.0833435
		C55.9047241,56.5476074,56.3928223,56.6071472,57.4761658,56.6071472L57.4761658,56.6071472z M60.3332977,57.2976074h-0.9404755
		v-0.6428528l-0.0238037-0.0238342c-0.357132,0.7142944-1.2738037,0.7381287-2.0595245,0.7381287
		c-1.4047699,0-2.3809509-0.2619324-2.3809509-1.8928528c0-1.7261963,0.892868-1.9642944,2.4404755-1.9642944
		c0.6190491,0,1.8333282,0.0595398,1.9642944,0.6309204h0.0595093v-1.1547241c0-1.1428833-0.607132-1.25-1.6666718-1.25
		c-0.7380829,0-1.6428375,0-1.6309357,0.8571167v0.2142944h-0.9761963v-0.1309204c0-1.6071777,1.107132-1.714325,2.5-1.7023926
		c1.5714264-0.0119324,2.7261963,0.1547546,2.7142792,2.0595093V57.2976074L60.3332977,57.2976074z"/>
	<path d="M65.1071167,51.7380981c-1.773819,0-1.773819,0.7857056-1.773819,2.4404907
		c0,1.4761658,0.0952454,2.4285583,1.773819,2.4285583c1.4523926,0,1.7261963-0.4047546,1.7261963-2.4285583
		C66.833313,52.3095398,66.7023468,51.7380981,65.1071167,51.7380981L65.1071167,51.7380981z M63.3332977,51.0476074v0.7619019
		l0.023819,0.0238342c0.3809509-0.7142944,1.2261963-0.8571472,2.0119019-0.8571472
		c2.2738037,0,2.4404755,1.3333435,2.4404755,3.2023926c0,2.4761658-0.6071472,3.1904602-2.4404755,3.1904602
		c-0.7142792,0-1.6547546-0.0833435-2.0119019-0.8095398h-0.023819V60h-0.9404755v-8.9523926H63.3332977L63.3332977,51.0476074z"/>
	<path d="M74.0356903,55.4047546h0.9642792v0.2261963c0,1.6547546-1.2738037,1.7380981-2.6666718,1.7380981
		c-2.4404755,0-2.8095245-0.8095398-2.8095245-3.1904602c0-2.5952759,0.5714417-3.2023926,2.8095245-3.2023926
		c2.023819,0,2.6666718,0.4642639,2.6666718,2.7738037v0.6309204h-4.5c0,1.9761963,0.1428528,2.2262268,1.8333282,2.2262268
		c1.2857208,0,1.7023926-0.0833435,1.7023926-0.964325V55.4047546L74.0356903,55.4047546z M70.4999695,53.6190491h3.5238037
		c-0.0476074-1.7738342-0.2619019-1.8809509-1.6904755-1.8809509
		C70.6309204,51.7380981,70.5713959,52.1785583,70.4999695,53.6190491L70.4999695,53.6190491z"/>
	<polygon fill="#FDB924" points="18.7499695,30.9807434 25.9668274,26.8140869 18.7499695,22.6474304 18.7499695,30.9807434 	"/>
	<polygon fill="#699AC5" points="18.7499695,19.6570435 25.9668274,15.490387 18.7499695,11.3237305 18.7499695,19.6570435 	"/>
	<polygon fill="#699AC5" points="19.6132202,32.4759521 26.8301086,36.6426086 26.8301086,28.3092957 19.6132202,32.4759521 	"/>
	<polygon fill="#005890" points="19.6132202,21.1522522 26.8301086,25.3189087 26.8301086,16.9855652 19.6132202,21.1522522 	"/>
	<polygon fill="#005890" points="19.6132202,9.8285217 26.8301086,13.9951782 26.8301086,5.6618652 19.6132202,9.8285217 	"/>
	<polygon fill="#005890" points="28.5565796,25.3189087 35.773468,21.1522522 28.5565796,16.9855652 28.5565796,25.3189087 	"/>
	<polygon fill="#005890" points="28.5565796,13.9951782 35.773468,9.8285217 28.5565796,5.6618652 28.5565796,13.9951782 	"/>
	<polygon fill="#699AC5" points="29.4198608,38.1378174 36.6367188,42.3044739 36.6367188,33.9711609 29.4198608,38.1378174 	"/>
	<polygon fill="#699AC5" points="29.4198608,26.8140869 36.6367188,30.9807434 36.6367188,22.6474304 29.4198608,26.8140869 	"/>
	<polygon fill="#FDB924" points="29.4198608,15.490387 36.6367188,19.6570435 36.6367188,11.3237305 29.4198608,15.490387 	"/>
	<polygon fill="#699AC5" points="38.3632202,42.3044739 45.5800934,38.1378174 38.3632202,33.9711609 38.3632202,42.3044739 	"/>
	<polygon fill="#699AC5" points="38.3632202,30.9807434 45.5800934,26.8140869 38.3632202,22.6474304 38.3632202,30.9807434 	"/>
	<polygon fill="#699AC5" points="38.3632202,19.6570435 45.5800934,15.490387 38.3632202,11.3237305 38.3632202,19.6570435 	"/>
	<polygon fill="#005890" points="38.3632202,8.3333435 45.5800934,4.166687 38.3632202,0 38.3632202,8.3333435 	"/>
	<polygon fill="#005890" points="39.2264709,32.4759521 46.4433594,36.6426086 46.4433594,28.3092957 39.2264709,32.4759521 	"/>
	<polygon fill="#699AC5" points="39.2264709,9.8285217 46.4433594,13.9951782 46.4433594,5.6618652 39.2264709,9.8285217 	"/>
	<polygon fill="#FDB924" points="48.1698608,36.6426086 55.386734,32.4759521 48.1698608,28.3092957 48.1698608,36.6426086 	"/>
	<polygon fill="#005890" points="48.1698608,13.9951782 55.386734,9.8285217 48.1698608,5.6618652 48.1698608,13.9951782 	"/>
	<polygon fill="#005890" points="49.0331116,26.8140869 56.2499847,30.9807434 56.2499847,22.6474304 49.0331116,26.8140869 	"/>
	<polygon fill="#005890" points="49.0331116,15.490387 56.2499847,19.6570435 56.2499847,11.3237305 49.0331116,15.490387 	"/>
</g>
</svg>
